<svg width="57" height="57" viewBox="0 0 57 57" fill="none" xmlns="http://www.w3.org/2000/svg">
<g filter="url(#filter0_d_11_662)">
<rect x="2" width="49" height="49" rx="7" fill="white"/>
</g>
<path d="M34 29H20C19.7348 29 19.4804 28.8946 19.2929 28.7071C19.1054 28.5196 19 28.2652 19 28C19 27.7348 19.1054 27.4804 19.2929 27.2929C19.4804 27.1054 19.7348 27 20 27H30.44C31.1087 27 31.7582 26.7767 32.2854 26.3654C32.8126 25.9542 33.1873 25.3786 33.35 24.73L35 18.24C35.0375 18.0924 35.0407 17.9382 35.0095 17.7892C34.9783 17.6401 34.9135 17.5002 34.82 17.38C34.7227 17.2567 34.5978 17.1581 34.4554 17.0921C34.3129 17.0261 34.1569 16.9945 34 17H19.76C19.5537 16.4165 19.1719 15.911 18.6671 15.5529C18.1622 15.1949 17.5589 15.0017 16.94 15H16C15.7348 15 15.4804 15.1054 15.2929 15.2929C15.1054 15.4804 15 15.7348 15 16C15 16.2652 15.1054 16.5196 15.2929 16.7071C15.4804 16.8946 15.7348 17 16 17H16.94C17.1684 16.9933 17.3923 17.0651 17.5742 17.2034C17.7562 17.3417 17.8852 17.5381 17.94 17.76L18 18.24L19.73 25C18.9344 25.0358 18.1855 25.3862 17.6482 25.9741C17.1109 26.5621 16.8292 27.3394 16.865 28.135C16.9008 28.9306 17.2512 29.6795 17.8391 30.2168C18.4271 30.7541 19.2044 31.0358 20 31H20.18C20.0155 31.4531 19.9627 31.9392 20.0259 32.4171C20.0892 32.895 20.2666 33.3506 20.5433 33.7454C20.82 34.1401 21.1877 34.4624 21.6154 34.6849C22.043 34.9074 22.5179 35.0235 23 35.0235C23.4821 35.0235 23.957 34.9074 24.3846 34.6849C24.8123 34.4624 25.18 34.1401 25.4567 33.7454C25.7334 33.3506 25.9108 32.895 25.9741 32.4171C26.0373 31.9392 25.9845 31.4531 25.82 31H28.18C28.0155 31.4531 27.9627 31.9392 28.0259 32.4171C28.0892 32.895 28.2666 33.3506 28.5433 33.7454C28.82 34.1401 29.1877 34.4624 29.6154 34.6849C30.043 34.9074 30.5179 35.0235 31 35.0235C31.4821 35.0235 31.957 34.9074 32.3846 34.6849C32.8123 34.4624 33.18 34.1401 33.4567 33.7454C33.7334 33.3506 33.9108 32.895 33.9741 32.4171C34.0373 31.9392 33.9845 31.4531 33.82 31H34C34.2652 31 34.5196 30.8946 34.7071 30.7071C34.8946 30.5196 35 30.2652 35 30C35 29.7348 34.8946 29.4804 34.7071 29.2929C34.5196 29.1054 34.2652 29 34 29ZM32.72 19L31.41 24.24C31.3552 24.4619 31.2262 24.6583 31.0442 24.7966C30.8623 24.9349 30.6384 25.0067 30.41 25H21.78L20.28 19H32.72ZM23 33C22.8022 33 22.6089 32.9414 22.4444 32.8315C22.28 32.7216 22.1518 32.5654 22.0761 32.3827C22.0004 32.2 21.9806 31.9989 22.0192 31.8049C22.0578 31.6109 22.153 31.4327 22.2929 31.2929C22.4327 31.153 22.6109 31.0578 22.8049 31.0192C22.9989 30.9806 23.2 31.0004 23.3827 31.0761C23.5654 31.1518 23.7216 31.28 23.8315 31.4444C23.9414 31.6089 24 31.8022 24 32C24 32.2652 23.8946 32.5196 23.7071 32.7071C23.5196 32.8946 23.2652 33 23 33ZM31 33C30.8022 33 30.6089 32.9414 30.4444 32.8315C30.28 32.7216 30.1518 32.5654 30.0761 32.3827C30.0004 32.2 29.9806 31.9989 30.0192 31.8049C30.0578 31.6109 30.153 31.4327 30.2929 31.2929C30.4327 31.153 30.6109 31.0578 30.8049 31.0192C30.9989 30.9806 31.2 31.0004 31.3827 31.0761C31.5654 31.1518 31.7216 31.28 31.8315 31.4444C31.9414 31.6089 32 31.8022 32 32C32 32.2652 31.8946 32.5196 31.7071 32.7071C31.5196 32.8946 31.2652 33 31 33Z" fill="#FF7A00"/>
<circle cx="36.5" cy="14.5" r="8.5" fill="#FF7A00"/>
<path d="M37.574 11.7V18H36.404V12.681H35.072V11.7H37.574Z" fill="white"/>
<defs>
<filter id="filter0_d_11_662" x="0" y="0" width="57" height="57" filterUnits="userSpaceOnUse" color-interpolation-filters="sRGB">
<feFlood flood-opacity="0" result="BackgroundImageFix"/>
<feColorMatrix in="SourceAlpha" type="matrix" values="0 0 0 0 0 0 0 0 0 0 0 0 0 0 0 0 0 0 127 0" result="hardAlpha"/>
<feOffset dx="2" dy="4"/>
<feGaussianBlur stdDeviation="2"/>
<feComposite in2="hardAlpha" operator="out"/>
<feColorMatrix type="matrix" values="0 0 0 0 0 0 0 0 0 0 0 0 0 0 0 0 0 0 0.25 0"/>
<feBlend mode="normal" in2="BackgroundImageFix" result="effect1_dropShadow_11_662"/>
<feBlend mode="normal" in="SourceGraphic" in2="effect1_dropShadow_11_662" result="shape"/>
</filter>
</defs>
</svg>
