<svg width="71" height="70" viewBox="0 0 71 70" fill="none" xmlns="http://www.w3.org/2000/svg">
<g filter="url(#filter0_d_11_868)">
<rect x="4" y="4" width="58.5859" height="58" rx="10" fill="white"/>
</g>
<path d="M39.8838 44.827C39.5953 44.8274 39.3095 44.7707 39.043 44.6602C38.7764 44.5497 38.5343 44.3877 38.3306 44.1833L33.2929 39.1458L28.2553 44.1833C27.8421 44.5891 27.2853 44.8153 26.7061 44.8127C26.127 44.8101 25.5723 44.5788 25.1628 44.1693C24.7532 43.7598 24.522 43.2051 24.5194 42.6259C24.5168 42.0468 24.743 41.49 25.1488 41.0768L31.7397 34.4859C31.9436 34.2818 32.1858 34.12 32.4523 34.0095C32.7188 33.8991 33.0045 33.8422 33.293 33.8422C33.5815 33.8422 33.8672 33.8991 34.1337 34.0095C34.4002 34.12 34.6424 34.2818 34.8463 34.4859L41.4372 41.0768C41.7444 41.3841 41.9536 41.7755 42.0383 42.2016C42.123 42.6277 42.0795 43.0694 41.9132 43.4708C41.747 43.8722 41.4654 44.2153 41.1042 44.4567C40.743 44.6981 40.3183 44.827 39.8838 44.827ZM39.8838 32.7437C39.5953 32.744 39.3095 32.6873 39.043 32.5769C38.7764 32.4664 38.5343 32.3043 38.3306 32.1L33.2929 27.0625L28.2553 32.1C27.8421 32.5058 27.2853 32.732 26.7061 32.7294C26.127 32.7267 25.5723 32.4955 25.1628 32.086C24.7532 31.6765 24.522 31.1218 24.5194 30.5426C24.5168 29.9635 24.743 29.4067 25.1488 28.9935L31.7397 22.4026C31.9436 22.1985 32.1858 22.0366 32.4523 21.9262C32.7188 21.8158 33.0045 21.7589 33.293 21.7589C33.5815 21.7589 33.8672 21.8158 34.1337 21.9262C34.4002 22.0366 34.6424 22.1985 34.8463 22.4026L41.4372 28.9935C41.7444 29.3007 41.9536 29.6922 42.0383 30.1183C42.123 30.5444 42.0795 30.9861 41.9132 31.3875C41.747 31.7889 41.4654 32.1319 41.1042 32.3734C40.743 32.6148 40.3183 32.7436 39.8838 32.7437Z" fill="#FA963A"/>
<defs>
<filter id="filter0_d_11_868" x="0" y="0" width="70.5858" height="70" filterUnits="userSpaceOnUse" color-interpolation-filters="sRGB">
<feFlood flood-opacity="0" result="BackgroundImageFix"/>
<feColorMatrix in="SourceAlpha" type="matrix" values="0 0 0 0 0 0 0 0 0 0 0 0 0 0 0 0 0 0 127 0" result="hardAlpha"/>
<feOffset dx="2" dy="2"/>
<feGaussianBlur stdDeviation="3"/>
<feComposite in2="hardAlpha" operator="out"/>
<feColorMatrix type="matrix" values="0 0 0 0 0 0 0 0 0 0 0 0 0 0 0 0 0 0 0.25 0"/>
<feBlend mode="normal" in2="BackgroundImageFix" result="effect1_dropShadow_11_868"/>
<feBlend mode="normal" in="SourceGraphic" in2="effect1_dropShadow_11_868" result="shape"/>
</filter>
</defs>
</svg>
