<svg width="33" height="33" viewBox="0 0 33 33" fill="none" xmlns="http://www.w3.org/2000/svg">
<circle cx="16.5" cy="16.5" r="16.5" fill="#FA963A"/>
<path d="M25 21H11C10.7348 21 10.4804 20.8946 10.2929 20.7071C10.1054 20.5196 10 20.2652 10 20C10 19.7348 10.1054 19.4804 10.2929 19.2929C10.4804 19.1054 10.7348 19 11 19H21.44C22.1087 19 22.7582 18.7767 23.2854 18.3654C23.8126 17.9542 24.1873 17.3786 24.35 16.73L26 10.24C26.0375 10.0924 26.0407 9.93821 26.0095 9.78917C25.9783 9.64013 25.9135 9.50018 25.82 9.38C25.7227 9.25673 25.5978 9.1581 25.4554 9.09208C25.3129 9.02606 25.1569 8.99452 25 9H10.76C10.5537 8.41645 10.1719 7.911 9.66707 7.55294C9.1622 7.19488 8.55894 7.00174 7.94 7H7C6.73478 7 6.48043 7.10536 6.29289 7.29289C6.10536 7.48043 6 7.73478 6 8C6 8.26522 6.10536 8.51957 6.29289 8.70711C6.48043 8.89464 6.73478 9 7 9H7.94C8.16843 8.99334 8.39226 9.06513 8.57421 9.20341C8.75615 9.34169 8.88525 9.53812 8.94 9.76L9 10.24L10.73 17C9.93435 17.0358 9.18551 17.3862 8.64822 17.9741C8.11093 18.5621 7.8292 19.3394 7.865 20.135C7.9008 20.9306 8.25121 21.6795 8.83914 22.2168C9.42707 22.7541 10.2044 23.0358 11 23H11.18C11.0155 23.4531 10.9627 23.9392 11.0259 24.4171C11.0892 24.895 11.2666 25.3506 11.5433 25.7454C11.82 26.1401 12.1877 26.4624 12.6154 26.6849C13.043 26.9074 13.5179 27.0235 14 27.0235C14.4821 27.0235 14.957 26.9074 15.3846 26.6849C15.8123 26.4624 16.18 26.1401 16.4567 25.7454C16.7334 25.3506 16.9108 24.895 16.9741 24.4171C17.0373 23.9392 16.9845 23.4531 16.82 23H19.18C19.0155 23.4531 18.9627 23.9392 19.0259 24.4171C19.0892 24.895 19.2666 25.3506 19.5433 25.7454C19.82 26.1401 20.1877 26.4624 20.6154 26.6849C21.043 26.9074 21.5179 27.0235 22 27.0235C22.4821 27.0235 22.957 26.9074 23.3846 26.6849C23.8123 26.4624 24.18 26.1401 24.4567 25.7454C24.7334 25.3506 24.9108 24.895 24.9741 24.4171C25.0373 23.9392 24.9845 23.4531 24.82 23H25C25.2652 23 25.5196 22.8946 25.7071 22.7071C25.8946 22.5196 26 22.2652 26 22C26 21.7348 25.8946 21.4804 25.7071 21.2929C25.5196 21.1054 25.2652 21 25 21ZM23.72 11L22.41 16.24C22.3552 16.4619 22.2262 16.6583 22.0442 16.7966C21.8623 16.9349 21.6384 17.0067 21.41 17H12.78L11.28 11H23.72ZM14 25C13.8022 25 13.6089 24.9414 13.4444 24.8315C13.28 24.7216 13.1518 24.5654 13.0761 24.3827C13.0004 24.2 12.9806 23.9989 13.0192 23.8049C13.0578 23.6109 13.153 23.4327 13.2929 23.2929C13.4327 23.153 13.6109 23.0578 13.8049 23.0192C13.9989 22.9806 14.2 23.0004 14.3827 23.0761C14.5654 23.1518 14.7216 23.28 14.8315 23.4444C14.9414 23.6089 15 23.8022 15 24C15 24.2652 14.8946 24.5196 14.7071 24.7071C14.5196 24.8946 14.2652 25 14 25ZM22 25C21.8022 25 21.6089 24.9414 21.4444 24.8315C21.28 24.7216 21.1518 24.5654 21.0761 24.3827C21.0004 24.2 20.9806 23.9989 21.0192 23.8049C21.0578 23.6109 21.153 23.4327 21.2929 23.2929C21.4327 23.153 21.6109 23.0578 21.8049 23.0192C21.9989 22.9806 22.2 23.0004 22.3827 23.0761C22.5654 23.1518 22.7216 23.28 22.8315 23.4444C22.9414 23.6089 23 23.8022 23 24C23 24.2652 22.8946 24.5196 22.7071 24.7071C22.5196 24.8946 22.2652 25 22 25Z" fill="white"/>
</svg>
